<svg width="20" height="20" viewBox="0 0 20 20" fill="none" xmlns="http://www.w3.org/2000/svg">
<path d="M17.6157 2.56987L17.6162 2.57039C19.7147 4.85284 19.7125 8.41999 17.6189 10.6866L17.6188 10.6867L10.0688 18.8639L2.51878 10.6867L2.51871 10.6866C0.42489 8.41979 0.423122 4.85263 2.51756 2.57456L2.51826 2.57381C3.00614 2.04096 3.5843 1.62022 4.21831 1.33368C4.8521 1.04724 5.53032 0.900012 6.21434 0.899198C7.50444 0.899318 8.75499 1.42391 9.71648 2.38146L10.0688 2.73229L10.4211 2.3815C11.3827 1.42408 12.6333 0.899491 13.9234 0.899198C14.6066 0.899802 15.284 1.04658 15.9171 1.33234C16.5505 1.61819 17.1281 2.03804 17.6157 2.56987Z" stroke="#97BA86" stroke-width="0.998591"/>
</svg>
