<svg width="17" height="17" viewBox="0 0 17 17" fill="none" xmlns="http://www.w3.org/2000/svg">
<path d="M5.84375 5.84375C5.98465 5.84375 6.11977 5.89972 6.2194 5.99935C6.31903 6.09898 6.375 6.2341 6.375 6.375V12.75C6.375 12.8909 6.31903 13.026 6.2194 13.1257C6.11977 13.2253 5.98465 13.2812 5.84375 13.2812C5.70285 13.2812 5.56773 13.2253 5.4681 13.1257C5.36847 13.026 5.3125 12.8909 5.3125 12.75V6.375C5.3125 6.2341 5.36847 6.09898 5.4681 5.99935C5.56773 5.89972 5.70285 5.84375 5.84375 5.84375ZM8.5 5.84375C8.6409 5.84375 8.77602 5.89972 8.87565 5.99935C8.97528 6.09898 9.03125 6.2341 9.03125 6.375V12.75C9.03125 12.8909 8.97528 13.026 8.87565 13.1257C8.77602 13.2253 8.6409 13.2812 8.5 13.2812C8.3591 13.2812 8.22398 13.2253 8.12435 13.1257C8.02472 13.026 7.96875 12.8909 7.96875 12.75V6.375C7.96875 6.2341 8.02472 6.09898 8.12435 5.99935C8.22398 5.89972 8.3591 5.84375 8.5 5.84375ZM11.6875 6.375C11.6875 6.2341 11.6315 6.09898 11.5319 5.99935C11.4323 5.89972 11.2971 5.84375 11.1562 5.84375C11.0154 5.84375 10.8802 5.89972 10.7806 5.99935C10.681 6.09898 10.625 6.2341 10.625 6.375V12.75C10.625 12.8909 10.681 13.026 10.7806 13.1257C10.8802 13.2253 11.0154 13.2812 11.1562 13.2812C11.2971 13.2812 11.4323 13.2253 11.5319 13.1257C11.6315 13.026 11.6875 12.8909 11.6875 12.75V6.375Z" fill="#FFA765"/>
<path d="M15.4062 3.1875C15.4062 3.46929 15.2943 3.73954 15.0951 3.9388C14.8958 4.13806 14.6255 4.25 14.3438 4.25H13.8125V13.8125C13.8125 14.3761 13.5886 14.9166 13.1901 15.3151C12.7916 15.7136 12.2511 15.9375 11.6875 15.9375H5.3125C4.74891 15.9375 4.20841 15.7136 3.8099 15.3151C3.41138 14.9166 3.1875 14.3761 3.1875 13.8125V4.25H2.65625C2.37446 4.25 2.10421 4.13806 1.90495 3.9388C1.70569 3.73954 1.59375 3.46929 1.59375 3.1875V2.125C1.59375 1.84321 1.70569 1.57296 1.90495 1.3737C2.10421 1.17444 2.37446 1.0625 2.65625 1.0625H6.375C6.375 0.780707 6.48694 0.510456 6.6862 0.311199C6.88546 0.111942 7.15571 0 7.4375 0L9.5625 0C9.84429 0 10.1145 0.111942 10.3138 0.311199C10.5131 0.510456 10.625 0.780707 10.625 1.0625H14.3438C14.6255 1.0625 14.8958 1.17444 15.0951 1.3737C15.2943 1.57296 15.4062 1.84321 15.4062 2.125V3.1875ZM4.37538 4.25L4.25 4.31269V13.8125C4.25 14.0943 4.36194 14.3645 4.5612 14.5638C4.76046 14.7631 5.03071 14.875 5.3125 14.875H11.6875C11.9693 14.875 12.2395 14.7631 12.4388 14.5638C12.6381 14.3645 12.75 14.0943 12.75 13.8125V4.31269L12.6246 4.25H4.37538ZM2.65625 3.1875H14.3438V2.125H2.65625V3.1875Z" fill="#FFA765"/>
</svg>
